<?xml version="1.0" encoding="UTF-8" standalone="no"?>
<svg
   xmlns:dc="http://purl.org/dc/elements/1.1/"
   xmlns:cc="http://creativecommons.org/ns#"
   xmlns:rdf="http://www.w3.org/1999/02/22-rdf-syntax-ns#"
   xmlns:svg="http://www.w3.org/2000/svg"
   xmlns="http://www.w3.org/2000/svg"
   viewBox="0 0 1280 746.66669"
   height="746.66669"
   width="1280"
   xml:space="preserve"
   id="svg2"
   version="1.1"><metadata
     id="metadata8"><rdf:RDF><cc:Work
         rdf:about=""><dc:format>image/svg+xml</dc:format><dc:type
           rdf:resource="http://purl.org/dc/dcmitype/StillImage" /></cc:Work></rdf:RDF></metadata><defs
     id="defs6"><linearGradient
       id="linearGradient28"
       spreadMethod="pad"
       gradientTransform="matrix(-8.8302526,168.65782,168.65782,8.8302526,362.64197,117.30803)"
       gradientUnits="userSpaceOnUse"
       y2="0"
       x2="1"
       y1="0"
       x1="0"><stop
         id="stop24"
         offset="0"
         style="stop-opacity:1;stop-color:#346dbf" /><stop
         id="stop26"
         offset="1"
         style="stop-opacity:1;stop-color:#5e2791" /></linearGradient><linearGradient
       id="linearGradient48"
       spreadMethod="pad"
       gradientTransform="matrix(-8.8302526,168.65782,168.65782,8.8302526,410.24207,119.80019)"
       gradientUnits="userSpaceOnUse"
       y2="0"
       x2="1"
       y1="0"
       x1="0"><stop
         id="stop44"
         offset="0"
         style="stop-opacity:1;stop-color:#346dbf" /><stop
         id="stop46"
         offset="1"
         style="stop-opacity:1;stop-color:#5e2791" /></linearGradient><linearGradient
       id="linearGradient68"
       spreadMethod="pad"
       gradientTransform="matrix(-8.8302526,168.65782,168.65782,8.8302526,452.69565,122.03829)"
       gradientUnits="userSpaceOnUse"
       y2="0"
       x2="1"
       y1="0"
       x1="0"><stop
         id="stop64"
         offset="0"
         style="stop-opacity:1;stop-color:#346dbf" /><stop
         id="stop66"
         offset="1"
         style="stop-opacity:1;stop-color:#5e2791" /></linearGradient><linearGradient
       id="linearGradient88"
       spreadMethod="pad"
       gradientTransform="matrix(-8.8302526,168.65782,168.65782,8.8302526,495.81015,124.28019)"
       gradientUnits="userSpaceOnUse"
       y2="0"
       x2="1"
       y1="0"
       x1="0"><stop
         id="stop84"
         offset="0"
         style="stop-opacity:1;stop-color:#346dbf" /><stop
         id="stop86"
         offset="1"
         style="stop-opacity:1;stop-color:#5e2791" /></linearGradient><linearGradient
       id="linearGradient108"
       spreadMethod="pad"
       gradientTransform="matrix(-8.8302526,168.65782,168.65782,8.8302526,544.3158,126.81975)"
       gradientUnits="userSpaceOnUse"
       y2="0"
       x2="1"
       y1="0"
       x1="0"><stop
         id="stop104"
         offset="0"
         style="stop-opacity:1;stop-color:#346dbf" /><stop
         id="stop106"
         offset="1"
         style="stop-opacity:1;stop-color:#5e2791" /></linearGradient><linearGradient
       id="linearGradient128"
       spreadMethod="pad"
       gradientTransform="matrix(-8.8302526,168.65782,168.65782,8.8302526,609.85156,130.25095)"
       gradientUnits="userSpaceOnUse"
       y2="0"
       x2="1"
       y1="0"
       x1="0"><stop
         id="stop124"
         offset="0"
         style="stop-opacity:1;stop-color:#346dbf" /><stop
         id="stop126"
         offset="1"
         style="stop-opacity:1;stop-color:#5e2791" /></linearGradient><linearGradient
       id="linearGradient148"
       spreadMethod="pad"
       gradientTransform="matrix(0,189.92435,189.92435,0,335.85846,114.37373)"
       gradientUnits="userSpaceOnUse"
       y2="0"
       x2="1"
       y1="0"
       x1="0"><stop
         id="stop144"
         offset="0"
         style="stop-opacity:1;stop-color:#346dbf" /><stop
         id="stop146"
         offset="1"
         style="stop-opacity:1;stop-color:#5e2791" /></linearGradient><linearGradient
       id="linearGradient168"
       spreadMethod="pad"
       gradientTransform="matrix(0,189.92435,189.92435,0,360.59131,114.37373)"
       gradientUnits="userSpaceOnUse"
       y2="0"
       x2="1"
       y1="0"
       x1="0"><stop
         id="stop164"
         offset="0"
         style="stop-opacity:1;stop-color:#346dbf" /><stop
         id="stop166"
         offset="1"
         style="stop-opacity:1;stop-color:#5e2791" /></linearGradient><linearGradient
       id="linearGradient188"
       spreadMethod="pad"
       gradientTransform="matrix(0,189.92435,189.92435,0,387.55582,114.37373)"
       gradientUnits="userSpaceOnUse"
       y2="0"
       x2="1"
       y1="0"
       x1="0"><stop
         id="stop184"
         offset="0"
         style="stop-opacity:1;stop-color:#346dbf" /><stop
         id="stop186"
         offset="1"
         style="stop-opacity:1;stop-color:#5e2791" /></linearGradient><linearGradient
       id="linearGradient208"
       spreadMethod="pad"
       gradientTransform="matrix(0,189.92435,189.92435,0,416.16693,114.37373)"
       gradientUnits="userSpaceOnUse"
       y2="0"
       x2="1"
       y1="0"
       x1="0"><stop
         id="stop204"
         offset="0"
         style="stop-opacity:1;stop-color:#346dbf" /><stop
         id="stop206"
         offset="1"
         style="stop-opacity:1;stop-color:#5e2791" /></linearGradient><linearGradient
       id="linearGradient228"
       spreadMethod="pad"
       gradientTransform="matrix(0,189.92435,189.92435,0,445.702,114.37373)"
       gradientUnits="userSpaceOnUse"
       y2="0"
       x2="1"
       y1="0"
       x1="0"><stop
         id="stop224"
         offset="0"
         style="stop-opacity:1;stop-color:#346dbf" /><stop
         id="stop226"
         offset="1"
         style="stop-opacity:1;stop-color:#5e2791" /></linearGradient><linearGradient
       id="linearGradient248"
       spreadMethod="pad"
       gradientTransform="matrix(0,189.92435,189.92435,0,470.70456,114.37373)"
       gradientUnits="userSpaceOnUse"
       y2="0"
       x2="1"
       y1="0"
       x1="0"><stop
         id="stop244"
         offset="0"
         style="stop-opacity:1;stop-color:#346dbf" /><stop
         id="stop246"
         offset="1"
         style="stop-opacity:1;stop-color:#5e2791" /></linearGradient><linearGradient
       id="linearGradient268"
       spreadMethod="pad"
       gradientTransform="matrix(0,189.92435,189.92435,0,506.98096,114.37373)"
       gradientUnits="userSpaceOnUse"
       y2="0"
       x2="1"
       y1="0"
       x1="0"><stop
         id="stop264"
         offset="0"
         style="stop-opacity:1;stop-color:#346dbf" /><stop
         id="stop266"
         offset="1"
         style="stop-opacity:1;stop-color:#5e2791" /></linearGradient><linearGradient
       id="linearGradient288"
       spreadMethod="pad"
       gradientTransform="matrix(0,189.92435,189.92435,0,534.44165,114.37373)"
       gradientUnits="userSpaceOnUse"
       y2="0"
       x2="1"
       y1="0"
       x1="0"><stop
         id="stop284"
         offset="0"
         style="stop-opacity:1;stop-color:#346dbf" /><stop
         id="stop286"
         offset="1"
         style="stop-opacity:1;stop-color:#5e2791" /></linearGradient><linearGradient
       id="linearGradient308"
       spreadMethod="pad"
       gradientTransform="matrix(0,189.92435,189.92435,0,567.33673,114.37373)"
       gradientUnits="userSpaceOnUse"
       y2="0"
       x2="1"
       y1="0"
       x1="0"><stop
         id="stop304"
         offset="0"
         style="stop-opacity:1;stop-color:#346dbf" /><stop
         id="stop306"
         offset="1"
         style="stop-opacity:1;stop-color:#5e2791" /></linearGradient><linearGradient
       id="linearGradient328"
       spreadMethod="pad"
       gradientTransform="matrix(0,189.92435,189.92435,0,582.46362,114.37373)"
       gradientUnits="userSpaceOnUse"
       y2="0"
       x2="1"
       y1="0"
       x1="0"><stop
         id="stop324"
         offset="0"
         style="stop-opacity:1;stop-color:#346dbf" /><stop
         id="stop326"
         offset="1"
         style="stop-opacity:1;stop-color:#5e2791" /></linearGradient><linearGradient
       id="linearGradient348"
       spreadMethod="pad"
       gradientTransform="matrix(0,189.92435,189.92435,0,600.04944,114.37373)"
       gradientUnits="userSpaceOnUse"
       y2="0"
       x2="1"
       y1="0"
       x1="0"><stop
         id="stop344"
         offset="0"
         style="stop-opacity:1;stop-color:#346dbf" /><stop
         id="stop346"
         offset="1"
         style="stop-opacity:1;stop-color:#5e2791" /></linearGradient><linearGradient
       id="linearGradient368"
       spreadMethod="pad"
       gradientTransform="matrix(0,189.92435,189.92435,0,624.12885,114.37373)"
       gradientUnits="userSpaceOnUse"
       y2="0"
       x2="1"
       y1="0"
       x1="0"><stop
         id="stop364"
         offset="0"
         style="stop-opacity:1;stop-color:#346dbf" /><stop
         id="stop366"
         offset="1"
         style="stop-opacity:1;stop-color:#5e2791" /></linearGradient><linearGradient
       id="linearGradient388"
       spreadMethod="pad"
       gradientTransform="matrix(8,203,203,-8,541.31403,191.30782)"
       gradientUnits="userSpaceOnUse"
       y2="0"
       x2="1"
       y1="0"
       x1="0"><stop
         id="stop384"
         offset="0"
         style="stop-opacity:1;stop-color:#346dbf" /><stop
         id="stop386"
         offset="1"
         style="stop-opacity:1;stop-color:#5e2791" /></linearGradient><linearGradient
       id="linearGradient408"
       spreadMethod="pad"
       gradientTransform="matrix(8,203,203,-8,407.8403,196.56787)"
       gradientUnits="userSpaceOnUse"
       y2="0"
       x2="1"
       y1="0"
       x1="0"><stop
         id="stop404"
         offset="0"
         style="stop-opacity:1;stop-color:#346dbf" /><stop
         id="stop406"
         offset="1"
         style="stop-opacity:1;stop-color:#5e2791" /></linearGradient><linearGradient
       id="linearGradient428"
       spreadMethod="pad"
       gradientTransform="matrix(8,203,203,-8,473.10928,193.9957)"
       gradientUnits="userSpaceOnUse"
       y2="0"
       x2="1"
       y1="0"
       x1="0"><stop
         id="stop424"
         offset="0"
         style="stop-opacity:1;stop-color:#346dbf" /><stop
         id="stop426"
         offset="1"
         style="stop-opacity:1;stop-color:#5e2791" /></linearGradient></defs><g
     transform="matrix(1.3333333,0,0,-1.3333333,0,746.66667)"
     id="g10"><g
       id="g12"><g
         id="g14"><g
           id="g20"><g
             id="g22"><path
               id="path30"
               style="fill:url(#linearGradient28);stroke:none"
               d="M 383.37,242.754 364.142,183.62 h -16.04 l -19.323,59.134 h 14.492 l 12.852,-40.969 12.85,40.969 z" /></g></g></g></g><g
       id="g32"><g
         id="g34"><g
           id="g40"><g
             id="g42"><path
               id="path50"
               style="fill:url(#linearGradient48);stroke:none"
               d="m 412.262,183.62 h -13.818 v 59.134 h 13.818 z" /></g></g></g></g><g
       id="g52"><g
         id="g54"><g
           id="g60"><g
             id="g62"><path
               id="path70"
               style="fill:url(#linearGradient68);stroke:none"
               d="m 429.847,226.617 c 0,-19.131 25.702,-16.715 25.702,-25.315 v 0 c 0,-3.768 -4.831,-5.7 -8.116,-5.7 v 0 c -4.349,0 -12.948,3.383 -15.942,5.41 v 0 l -5.412,-12.271 c 5.412,-4.156 15.17,-6.087 21.259,-6.087 v 0 c 12.463,0 23.091,8.02 23.091,19.905 v 0 c 0,18.647 -26.377,14.783 -26.377,23.671 v 0 c 0,4.058 5.314,5.315 8.695,5.315 v 0 c 3.575,0 9.856,-1.546 12.561,-3.864 v 0 l 4.444,10.241 c -4.541,4.251 -12.463,5.701 -18.55,5.701 v 0 c -11.499,0 -21.355,-5.122 -21.355,-17.006" /></g></g></g></g><g
       id="g72"><g
         id="g74"><g
           id="g80"><g
             id="g82"><path
               id="path90"
               style="fill:url(#linearGradient88);stroke:none"
               d="m 484.246,183.62 h 13.819 v 59.135 h -13.819 z" /></g></g></g></g><g
       id="g92"><g
         id="g94"><g
           id="g100"><g
             id="g102"><path
               id="path110"
               style="fill:url(#linearGradient108);stroke:none"
               d="m 511.882,212.898 c 0,-16.716 10.243,-30.244 28.02,-30.244 v 0 c 17.779,0 27.828,13.528 27.828,30.339 v 0 c 0,17.006 -10.242,30.726 -27.73,30.726 v 0 c -17.586,0 -28.118,-13.816 -28.118,-30.821 m 15.074,0 c 0,8.501 2.995,18.647 12.946,18.647 v 0 c 9.952,0 12.851,-10.146 12.851,-18.841 v 0 c 0,-8.021 -2.417,-18.068 -12.753,-18.068 v 0 c -10.339,0 -13.044,10.145 -13.044,18.262" /></g></g></g></g><g
       id="g112"><g
         id="g114"><g
           id="g120"><g
             id="g122"><path
               id="path130"
               style="fill:url(#linearGradient128);stroke:none"
               d="m 615.655,242.754 v -34.399 l -20.291,34.399 H 581.547 V 183.62 h 13.72 v 33.528 l 20.291,-33.528 h 13.914 v 59.134 z" /></g></g></g></g><g
       id="g132"><g
         id="g134"><g
           id="g140"><g
             id="g142"><path
               id="path150"
               style="fill:url(#linearGradient148);stroke:none"
               d="m 327.855,165.818 c 0,-8.252 13.168,-6.765 13.168,-12.761 v 0 c 0,-3.111 -2.843,-4.509 -5.637,-4.509 v 0 c -1.985,0 -5.412,1.352 -7.034,2.569 v 0 l -1.669,-3.427 c 2.344,-1.804 6.088,-2.795 9.017,-2.795 v 0 c 5.277,0 9.334,3.383 9.334,8.793 v 0 c 0,8.432 -13.255,7.034 -13.255,11.995 v 0 c 0,3.11 3.201,4.238 5.816,4.238 v 0 c 1.803,0 4.193,-0.723 5.591,-1.849 v 0 l 1.307,2.976 c -1.848,1.669 -4.869,2.344 -7.304,2.344 v 0 c -4.689,0 -9.334,-2.254 -9.334,-7.574" /></g></g></g></g><g
       id="g152"><g
         id="g154"><g
           id="g160"><g
             id="g162"><path
               id="path170"
               style="fill:url(#linearGradient168);stroke:none"
               d="m 349.724,159.144 c 0,-7.71 5.637,-14.204 13.573,-14.204 v 0 c 2.706,0 6.087,0.946 8.162,2.796 v 0 l -1.624,3.292 c -1.624,-1.49 -4.148,-2.436 -6.312,-2.436 v 0 c -5.907,0 -9.831,4.87 -9.831,10.552 v 0 c 0,5.681 3.924,10.551 9.831,10.551 v 0 c 2.164,0 4.688,-0.946 6.312,-2.435 v 0 l 1.624,3.247 c -2.075,1.893 -5.456,2.885 -8.162,2.885 v 0 c -7.936,0 -13.573,-6.538 -13.573,-14.248" /></g></g></g></g><g
       id="g172"><g
         id="g174"><g
           id="g180"><g
             id="g182"><path
               id="path190"
               style="fill:url(#linearGradient188);stroke:none"
               d="M 393.689,172.941 V 161.85 h -12.31 v 11.091 h -3.789 v -27.596 h 3.789 v 12.852 h 12.31 v -12.852 h 3.832 v 27.596 z" /></g></g></g></g><g
       id="g192"><g
         id="g194"><g
           id="g200"><g
             id="g202"><path
               id="path210"
               style="fill:url(#linearGradient208);stroke:none"
               d="m 403.969,159.144 c 0,-7.35 4.239,-14.249 12.22,-14.249 v 0 c 7.981,0 12.176,6.899 12.176,14.249 v 0 c 0,7.215 -4.284,14.248 -12.176,14.248 v 0 c -7.846,0 -12.22,-7.033 -12.22,-14.248 m 4.149,0 c 0,5.004 2.164,10.822 8.071,10.822 v 0 c 5.907,0 8.071,-5.818 8.071,-10.822 v 0 c 0,-5.096 -2.075,-10.866 -8.071,-10.866 v 0 c -5.953,0 -8.071,5.815 -8.071,10.866" /></g></g></g></g><g
       id="g212"><g
         id="g214"><g
           id="g220"><g
             id="g222"><path
               id="path230"
               style="fill:url(#linearGradient228);stroke:none"
               d="m 433.505,159.144 c 0,-7.35 4.238,-14.249 12.219,-14.249 v 0 c 7.981,0 12.176,6.899 12.176,14.249 v 0 c 0,7.215 -4.285,14.248 -12.176,14.248 v 0 c -7.846,0 -12.219,-7.033 -12.219,-14.248 m 4.148,0 c 0,5.004 2.163,10.822 8.071,10.822 v 0 c 5.907,0 8.071,-5.818 8.071,-10.822 v 0 c 0,-5.096 -2.074,-10.866 -8.071,-10.866 v 0 c -5.953,0 -8.071,5.815 -8.071,10.866" /></g></g></g></g><g
       id="g232"><g
         id="g234"><g
           id="g240"><g
             id="g242"><path
               id="path250"
               style="fill:url(#linearGradient248);stroke:none"
               d="m 464.346,172.941 v -27.596 h 12.717 v 3.608 h -8.928 v 23.988 z" /></g></g></g></g><g
       id="g252"><g
         id="g254"><g
           id="g260"><g
             id="g262"><path
               id="path270"
               style="fill:url(#linearGradient268);stroke:none"
               d="m 494.784,159.144 c 0,-7.35 4.238,-14.249 12.22,-14.249 v 0 c 7.981,0 12.174,6.899 12.174,14.249 v 0 c 0,7.215 -4.283,14.248 -12.174,14.248 v 0 c -7.847,0 -12.22,-7.033 -12.22,-14.248 m 4.149,0 c 0,5.004 2.164,10.822 8.071,10.822 v 0 c 5.907,0 8.071,-5.818 8.071,-10.822 v 0 c 0,-5.096 -2.075,-10.866 -8.071,-10.866 v 0 c -5.953,0 -8.071,5.815 -8.071,10.866" /></g></g></g></g><g
       id="g272"><g
         id="g274"><g
           id="g280"><g
             id="g282"><path
               id="path290"
               style="fill:url(#linearGradient288);stroke:none"
               d="m 525.626,172.941 v -27.596 h 3.787 v 12.491 h 10.688 v 3.654 h -10.688 v 7.844 h 13.845 v 3.607 z" /></g></g></g></g><g
       id="g292"><g
         id="g294"><g
           id="g300"><g
             id="g302"><path
               id="path310"
               style="fill:url(#linearGradient308);stroke:none"
               d="m 560.978,172.941 v -27.596 h 12.717 v 3.608 h -8.929 v 23.988 z" /></g></g></g></g><g
       id="g312"><g
         id="g314"><g
           id="g320"><g
             id="g322"><path
               id="path330"
               style="fill:url(#linearGradient328);stroke:none"
               d="m 580.547,145.345 h 3.833 v 27.596 h -3.833 z" /></g></g></g></g><g
       id="g332"><g
         id="g334"><g
           id="g340"><g
             id="g342"><path
               id="path350"
               style="fill:url(#linearGradient348);stroke:none"
               d="m 591.233,172.941 v -27.596 h 3.789 v 12.491 h 10.687 v 3.654 h -10.687 v 7.844 h 13.843 v 3.607 z" /></g></g></g></g><g
       id="g352"><g
         id="g354"><g
           id="g360"><g
             id="g362"><path
               id="path370"
               style="fill:url(#linearGradient368);stroke:none"
               d="m 615.314,172.941 v -27.596 h 17.63 v 3.608 h -13.799 v 9.199 h 11.093 v 3.338 h -11.093 v 7.844 h 13.799 v 3.607 z" /></g></g></g></g><g
       id="g372"><g
         id="g374"><g
           id="g380"><g
             id="g382"><path
               id="path390"
               style="fill:url(#linearGradient388);stroke:none"
               d="m 480.217,316.208 c -3.013,-5.316 -5.27,-10.382 -7.803,-15.984 v 0 c -4.624,-10.208 -8.442,-23.332 -11.34,-31.144 v 0 h 15.773 c 1.189,3.125 2.232,7.562 3.69,11.591 v 0 c 2.417,6.716 4.937,12.532 8.065,18.863 v 0 c 27.304,55.357 81.841,95.248 144.342,103.04 v 0 V 418 C 570.443,410.497 511.511,371.411 480.217,316.208" /></g></g></g></g><g
       id="g392"><g
         id="g394"><g
           id="g400"><g
             id="g402"><path
               id="path410"
               style="fill:url(#linearGradient408);stroke:none"
               d="m 326.683,402.574 c 62.502,-7.753 118.119,-47.339 145.654,-102.714 v 0 c 3.166,-6.332 6.045,-12.473 8.462,-19.189 v 0 c 1.478,-4.029 2.802,-8.466 3.991,-11.591 v 0 h 15.792 c -2.935,7.812 -6.811,20.955 -11.494,31.201 v 0 c -2.552,5.565 -5.392,10.268 -8.423,15.563 v 0 C 449.139,371.047 392.31,410.478 326.683,418 v 0 z" /></g></g></g></g><g
       id="g412"><g
         id="g414"><g
           id="g420"><g
             id="g422"><path
               id="path430"
               style="fill:url(#linearGradient428);stroke:none"
               d="m 467.728,378.903 c 0,-6.997 5.672,-12.668 12.669,-12.668 v 0 c 6.995,0 12.667,5.671 12.667,12.668 v 0 c 0,6.996 -5.672,12.668 -12.667,12.668 v 0 c -6.997,0 -12.669,-5.672 -12.669,-12.668" /></g></g></g></g></g></svg>